<?xml version="1.0" encoding="UTF-8" standalone="no"?>
<!DOCTYPE svg PUBLIC "-//W3C//DTD SVG 1.1//EN"
"http://www.w3.org/Graphics/SVG/1.1/DTD/svg11.dtd">
<svg viewBox="0 0 909 1286" version="1.1" xmlns="http://www.w3.org/2000/svg" xmlns:xlink="http://www.w3.org/1999/xlink">
<defs>
<clipPath id="c0_1"><path d="M53.3,1273.8V249.9H801.7V1273.8Z"/></clipPath>
<style type="text/css"><![CDATA[
.g0_1{
fill: #FFFFFF;
}
.g1_1{
fill: none;
stroke: #000000;
stroke-width: 0.152;
stroke-linecap: butt;
stroke-linejoin: miter;
}
.g2_1{
}
.g3_1{
fill: none;
stroke: #000000;
stroke-width: 1.419;
stroke-linecap: round;
stroke-linejoin: round;
}
]]></style>
</defs>
<path fill-rule="evenodd" d="M53.3,249.9H803.2v-.1H53.3v.1Z" class="g0_1"/>
<path fill-rule="evenodd" d="M53.3,1275.3H803.2v-.1H53.3v.1Z" class="g0_1"/>
<path fill-rule="evenodd" d="M803.2,1275.2V249.9V1275.2Z" class="g0_1"/>
<path d="M86.5,351.8V730.9" class="g1_1"/>
<path fill-rule="evenodd" d="M86.5,351.8h1.4V730.9H86.5V351.8Z" class="g2_1"/>
<path d="M732.4,353.2V730.9" class="g1_1"/>
<path fill-rule="evenodd" d="M732.4,353.2h1.4V730.9h-1.4V353.2Z" class="g2_1"/>
<path d="M86.5,835.6v311.3" class="g1_1"/>
<path fill-rule="evenodd" d="M86.5,835.6h1.4v311.3H86.5V835.6Z" class="g2_1"/>
<path d="M732.4,837.1v309.8" class="g1_1"/>
<path fill-rule="evenodd" d="M732.4,837.1h1.4v309.8h-1.4V837.1Z" class="g2_1"/>
<g clip-path="url(#c0_1)">
<path fill-rule="evenodd" d="M51.9,248.5h2.9V1273.8H51.9V248.5Z" class="g2_1"/>
</g>
<path fill-rule="evenodd" d="M798.9,251.4h2.8V1273.7h-2.8V251.4Z" class="g2_1"/>
<path d="M86.5,1195.6v51.7" class="g1_1"/>
<path fill-rule="evenodd" d="M86.5,1195.6h1.4v51.6H86.5v-51.6Z" class="g2_1"/>
<path d="M732.4,1197.1v50.2" class="g1_1"/>
<path fill-rule="evenodd" d="M732.4,1197.1h1.4v50.2h-1.4v-50.2Z" class="g2_1"/>
<g clip-path="url(#c0_1)">
<path fill-rule="evenodd" d="M54.8,248.5H801.7v2.9H54.8v-2.9Z" class="g2_1"/>
</g>
<path d="M88,351.8H733.9" class="g1_1"/>
<path fill-rule="evenodd" d="M88,351.8H733.8v1.3H88v-1.3Z" class="g2_1"/>
<path d="M88,401.9H733.9" class="g1_1"/>
<path fill-rule="evenodd" d="M88,401.9H733.8v1.4H88v-1.4Z" class="g2_1"/>
<path d="M88,452.1H733.9" class="g1_1"/>
<path fill-rule="evenodd" d="M88,452.1H733.8v1.3H88v-1.3Z" class="g2_1"/>
<path d="M88,499.3H733.9" class="g1_1"/>
<path fill-rule="evenodd" d="M88,499.3H733.8v1.4H88v-1.4Z" class="g2_1"/>
<path d="M88,547.9H733.9" class="g1_1"/>
<path fill-rule="evenodd" d="M88,547.9H733.8v1.5H88v-1.5Z" class="g2_1"/>
<path d="M88,587.8H733.9" class="g1_1"/>
<path fill-rule="evenodd" d="M88,587.8H733.8v1.4H88v-1.4Z" class="g2_1"/>
<path d="M88,629.1H733.9" class="g1_1"/>
<path fill-rule="evenodd" d="M88,629.1H733.8v1.4H88v-1.4Z" class="g2_1"/>
<path d="M88,679.3H733.9" class="g1_1"/>
<path fill-rule="evenodd" d="M88,679.3H733.8v1.4H88v-1.4Z" class="g2_1"/>
<path d="M88,729.4H733.9" class="g1_1"/>
<path fill-rule="evenodd" d="M88,729.4H733.8v1.4H88v-1.4Z" class="g2_1"/>
<path d="M88,835.6H733.9" class="g1_1"/>
<path fill-rule="evenodd" d="M88,835.6H733.8V837H88v-1.4Z" class="g2_1"/>
<path d="M88,885.8H733.9" class="g1_1"/>
<path fill-rule="evenodd" d="M88,885.8H733.8v1.4H88v-1.4Z" class="g2_1"/>
<path d="M88,935.9H733.9" class="g1_1"/>
<path fill-rule="evenodd" d="M88,935.9H733.8v1.5H88v-1.5Z" class="g2_1"/>
<path d="M88,986.1H733.9" class="g1_1"/>
<path fill-rule="evenodd" d="M88,986.1H733.8v1.5H88v-1.5Z" class="g2_1"/>
<path d="M88,1036.3H733.9" class="g1_1"/>
<path fill-rule="evenodd" d="M88,1036.3H733.8v1.4H88v-1.4Z" class="g2_1"/>
<path d="M88,1086.4H733.9" class="g1_1"/>
<path fill-rule="evenodd" d="M88,1086.4H733.8v1.5H88v-1.5Z" class="g2_1"/>
<path d="M88,1145.5H733.9" class="g1_1"/>
<path fill-rule="evenodd" d="M88,1145.5H733.8v1.4H88v-1.4Z" class="g2_1"/>
<path d="M88,1195.6H733.9" class="g1_1"/>
<path fill-rule="evenodd" d="M88,1195.6H733.8v1.4H88v-1.4Z" class="g2_1"/>
<path d="M88,1245.8H733.9" class="g1_1"/>
<path fill-rule="evenodd" d="M88,1245.8H733.8v1.4H88v-1.4Z" class="g2_1"/>
<path fill-rule="evenodd" d="M54.8,1270.9H801.7v2.9H54.8v-2.9Z" class="g2_1"/>
<path fill-rule="evenodd" d="M242.6,413.7v25.1h24.5V413.7H242.6Z" id="bay" class="g0_1"/>
<path d="M242.6,413.7h24.5v25.1H242.6V413.7Z" class="g3_1"/>
<path fill-rule="evenodd" d="M537.4,413.7v25.1h24.5V413.7H537.4Z" class="g0_1"/>
<path d="M537.4,413.7h24.5v25.1H537.4V413.7Z" class="g3_1"/>
<path fill-rule="evenodd" d="M372.6,413.7v25.1h24.6V413.7H372.6Z" class="g2_1"/>
<path d="M372.6,413.7h24.6v25.1H372.6V413.7Z" class="g3_1"/>
</svg>